<svg xmlns="http://www.w3.org/2000/svg" width="38.439" height="38.439" viewBox="0 0 38.439 38.439">
  <g id="_006-github-sign" data-name="006-github-sign" opacity="0.68">
    <g id="Group_2" data-name="Group 2" transform="translate(0 0)">
      <path id="Path_6" data-name="Path 6" d="M154.466,352.518q-.4.075-.351.375t.45.2q.4-.1.35-.35Q154.867,352.468,154.466,352.518Z" transform="translate(-140.602 -321.612)" fill="#fff"/>
      <path id="Path_7" data-name="Path 7" d="M137.73,354.815c-.267,0-.4.091-.4.275q0,.325.425.275.4,0,.4-.275Q138.156,354.765,137.73,354.815Z" transform="translate(-125.293 -323.708)" fill="#fff"/>
      <path id="Path_8" data-name="Path 8" d="M119.431,351.921q-.1.275.325.375.375.15.475-.15.075-.275-.325-.4C119.656,351.68,119.5,351.737,119.431,351.921Z" transform="translate(-108.945 -320.89)" fill="#fff"/>
      <path id="Path_9" data-name="Path 9" d="M36.324,2.114A6.942,6.942,0,0,0,31.232,0H7.207A6.943,6.943,0,0,0,2.114,2.114,6.943,6.943,0,0,0,0,7.207V31.232a6.942,6.942,0,0,0,2.114,5.092,6.942,6.942,0,0,0,5.093,2.115h5.606a6.768,6.768,0,0,0,.826-.037.969.969,0,0,0,.55-.326,1.166,1.166,0,0,0,.275-.838q0-.075-.013-1.7t-.013-2.578l-.576.1a7.366,7.366,0,0,1-1.389.088,10.687,10.687,0,0,1-1.739-.175,3.9,3.9,0,0,1-1.677-.75,3.176,3.176,0,0,1-1.1-1.539l-.25-.576a6.252,6.252,0,0,0-.788-1.276,3.02,3.02,0,0,0-1.089-.951l-.175-.125a1.84,1.84,0,0,1-.325-.3A1.391,1.391,0,0,1,5.1,27.1q-.075-.176.125-.288a1.627,1.627,0,0,1,.726-.112l.5.075a3.648,3.648,0,0,1,1.239.6,4.039,4.039,0,0,1,1.214,1.3A4.41,4.41,0,0,0,10.3,30.242a2.945,2.945,0,0,0,1.639.538,7.11,7.11,0,0,0,1.426-.125,4.982,4.982,0,0,0,1.126-.376A4.056,4.056,0,0,1,15.715,27.7a17.137,17.137,0,0,1-2.565-.451,10.223,10.223,0,0,1-2.352-.976A6.735,6.735,0,0,1,8.783,24.6,8.061,8.061,0,0,1,7.47,21.971a12.5,12.5,0,0,1-.513-3.754,7.3,7.3,0,0,1,1.977-5.155,6.728,6.728,0,0,1,.175-5.105,3.507,3.507,0,0,1,2.152.338,15.093,15.093,0,0,1,2.09.963q.663.4,1.064.676a18.068,18.068,0,0,1,9.61,0l.951-.6a13.463,13.463,0,0,1,2.3-1.1,3.278,3.278,0,0,1,2.027-.275,6.662,6.662,0,0,1,.2,5.105,7.3,7.3,0,0,1,1.977,5.155,12.618,12.618,0,0,1-.513,3.766,7.732,7.732,0,0,1-1.326,2.628,7,7,0,0,1-2.027,1.664,10.209,10.209,0,0,1-2.353.976A17.125,17.125,0,0,1,22.7,27.7,4.457,4.457,0,0,1,24,31.256v5.981a1.611,1.611,0,0,0,.125.688.691.691,0,0,0,.4.363,2.218,2.218,0,0,0,.488.125,5.619,5.619,0,0,0,.613.025h5.606a7.22,7.22,0,0,0,7.207-7.208V7.207A6.944,6.944,0,0,0,36.324,2.114Z" transform="translate(0 0)" fill="#fff"/>
      <path id="Path_10" data-name="Path 10" d="M86,318.567q-.175.125.05.4.251.25.4.075.175-.125-.05-.4Q86.146,318.417,86,318.567Z" transform="translate(-78.388 -290.589)" fill="#fff"/>
      <path id="Path_11" data-name="Path 11" d="M77.194,311.239q-.075.176.175.3a.214.214,0,0,0,.325-.05q.075-.176-.175-.3Q77.269,311.114,77.194,311.239Z" transform="translate(-70.412 -283.886)" fill="#fff"/>
      <path id="Path_12" data-name="Path 12" d="M94.472,329.691q-.225.125,0,.45t.425.175q.225-.175,0-.476C94.765,329.624,94.623,329.573,94.472,329.691Z" transform="translate(-86.089 -300.736)" fill="#fff"/>
      <path id="Path_13" data-name="Path 13" d="M104.681,342.171c-.15.134-.117.292.1.476q.3.3.5.074.2-.2-.1-.475Q104.881,341.947,104.681,342.171Z" transform="translate(-95.421 -312.091)" fill="#fff"/>
    </g>
  </g>
</svg>
