<svg xmlns="http://www.w3.org/2000/svg" width="38.439" height="38.439" viewBox="0 0 38.439 38.439">
  <path
    d="M36.327,2.114A6.941,6.941,0,0,0,31.235,0H7.21A6.943,6.943,0,0,0,2.117,2.114,6.943,6.943,0,0,0,0,7.207V31.232a6.943,6.943,0,0,0,2.114,5.093A6.942,6.942,0,0,0,7.21,38.439H31.235a7.22,7.22,0,0,0,7.207-7.208V7.207A6.943,6.943,0,0,0,36.327,2.114ZM11.715,32.183H5.934V14.815h5.781V32.183ZM11.19,11.6a3.292,3.292,0,0,1-2.378.863H8.787A3.181,3.181,0,0,1,6.472,11.6a2.863,2.863,0,0,1-.889-2.14A2.816,2.816,0,0,1,6.5,7.307a3.332,3.332,0,0,1,2.365-.851,3.2,3.2,0,0,1,2.327.851,2.958,2.958,0,0,1,.9,2.152A2.846,2.846,0,0,1,11.19,11.6ZM32.511,32.183H26.73V22.9q0-3.928-2.9-3.929a2.832,2.832,0,0,0-1.852.613,3.851,3.851,0,0,0-1.126,1.489,4.128,4.128,0,0,0-.175,1.4v9.71H14.893q.075-15.716,0-17.368h5.781v2.452a5.806,5.806,0,0,1,5.18-2.853,6.265,6.265,0,0,1,4.83,1.977q1.827,1.977,1.827,5.831v9.961Z"
    transform="translate(-0.003 0)" />
</svg>