<svg xmlns="http://www.w3.org/2000/svg" width="44.846" height="35.236" viewBox="0 0 44.846 35.236">
  <path
    d="M4.3,65.681q.851.6,5.13,3.566t6.557,4.567q.25.176,1.063.763t1.351.951q.538.363,1.3.813a7.551,7.551,0,0,0,1.439.675,3.965,3.965,0,0,0,1.251.225h.05a3.969,3.969,0,0,0,1.251-.225,7.558,7.558,0,0,0,1.439-.675q.763-.451,1.3-.813t1.351-.951q.813-.589,1.064-.763,2.3-1.6,11.712-8.133A11.888,11.888,0,0,0,43.619,62.6a6.609,6.609,0,0,0,1.227-3.778,4.038,4.038,0,0,0-4-4H4a3.574,3.574,0,0,0-2.965,1.3A5.051,5.051,0,0,0,0,59.374a5.846,5.846,0,0,0,1.376,3.416A12.422,12.422,0,0,0,4.3,65.681Z"
    transform="translate(0 -54.82)" />
  <path
    d="M42.343,186.614q-8.208,5.555-12.462,8.634-1.426,1.051-2.315,1.639a14.283,14.283,0,0,1-2.365,1.2,7.2,7.2,0,0,1-2.752.613H22.4a7.2,7.2,0,0,1-2.753-.613,14.29,14.29,0,0,1-2.365-1.2q-.888-.588-2.315-1.639-3.379-2.477-12.438-8.634A13.255,13.255,0,0,1,0,184.437v19.87a3.855,3.855,0,0,0,1.176,2.828A3.855,3.855,0,0,0,4,208.311H40.842a4.016,4.016,0,0,0,4-4v-19.87A13.8,13.8,0,0,1,42.343,186.614Z"
    transform="translate(0 -173.076)" />
</svg>