<svg xmlns="http://www.w3.org/2000/svg" xmlns:xlink="http://www.w3.org/1999/xlink" width="100" height="100" viewBox="0 0 100 100">
  <defs>
    <filter id="Rectangle_70" x="0" y="0" width="100" height="100" filterUnits="userSpaceOnUse">
      <feOffset dy="3" input="SourceAlpha"/>
      <feGaussianBlur stdDeviation="6" result="blur"/>
      <feFlood flood-color="#2e2a2a" flood-opacity="0.741"/>
      <feComposite operator="in" in2="blur"/>
      <feComposite in="SourceGraphic"/>
    </filter>
  </defs>
  <g id="Component_4_1" data-name="Component 4 – 1" transform="translate(18 15)">
    <g transform="matrix(1, 0, 0, 1, -18, -15)" filter="url(#Rectangle_70)">
      <rect id="Rectangle_70-2" data-name="Rectangle 70" width="64" height="64" rx="32" transform="translate(18 15)" fill="#682faa"/>
    </g>
    <g id="up-arrow" transform="translate(14.508 -38.005)">
      <path id="Path_55" data-name="Path 55" d="M35.369,76.424,18.686,59.742a1.125,1.125,0,0,0-1.646,0L.358,76.424a1.126,1.126,0,0,0,0,1.647L2.148,79.86a1.126,1.126,0,0,0,1.647,0L17.863,65.792,31.932,79.861a1.128,1.128,0,0,0,1.647,0l1.79-1.79a1.128,1.128,0,0,0,0-1.647Z" transform="translate(0)" fill="#f8f8f8"/>
    </g>
  </g>
</svg>
